<svg xmlns="http://www.w3.org/2000/svg" width="1024" height="1024" viewBox="0 0 1024 1024">
  <defs>
    <linearGradient id="bg" x1="0" y1="0" x2="1" y2="1">
      <stop offset="0%" stop-color="#6366f1"/>
      <stop offset="55%" stop-color="#8b5cf6"/>
      <stop offset="100%" stop-color="#a855f7"/>
    </linearGradient>
  </defs>

  <rect width="1024" height="1024" rx="224" fill="#0b0e1f"/>
  <rect x="24" y="24" width="976" height="976" rx="204" fill="url(#bg)"/>

  <!-- Lch: LTCの矩形波 -->
  <g fill="#ffffff">
    <rect x="170" y="284" width="144" height="44"/>
    <rect x="314" y="448" width="96" height="44"/>
    <rect x="292" y="284" width="44" height="208"/>
    <rect x="410" y="284" width="96" height="44"/>
    <rect x="388" y="284" width="44" height="208"/>
    <rect x="506" y="448" width="144" height="44"/>
    <rect x="484" y="284" width="44" height="208"/>
    <rect x="650" y="284" width="96" height="44"/>
    <rect x="628" y="284" width="44" height="208"/>
    <rect x="746" y="448" width="108" height="44"/>
    <rect x="724" y="284" width="44" height="208"/>
  </g>

  <!-- Rch: 音源の波形 -->
  <g fill="#ffffff" fill-opacity="0.88">
    <rect x="170.0" y="668" width="68" height="96" rx="34"/>
    <rect x="293.2" y="612" width="68" height="208" rx="34"/>
    <rect x="416.4" y="566" width="68" height="300" rx="34"/>
    <rect x="539.6" y="640" width="68" height="152" rx="34"/>
    <rect x="662.8" y="584" width="68" height="264" rx="34"/>
    <rect x="786.0" y="661" width="68" height="110" rx="34"/>
  </g>
</svg>
